<?xml version="1.0" encoding="utf-8"?>
<!-- Generator: Adobe Illustrator 15.0.0, SVG Export Plug-In . SVG Version: 6.00 Build 0)  -->
<!DOCTYPE svg PUBLIC "-//W3C//DTD SVG 1.1//EN" "http://www.w3.org/Graphics/SVG/1.1/DTD/svg11.dtd">
<svg version="1.1" id="Layer_1" xmlns="http://www.w3.org/2000/svg" xmlns:xlink="http://www.w3.org/1999/xlink" x="0px" y="0px"
	 width="202px" height="50px" viewBox="0 0 202 50" enable-background="new 0 0 202 50" xml:space="preserve">
<g>
	<path fill="#575757" d="M7.495,36.411H1c-0.055,0-0.1,0.044-0.1,0.1v0.895c0,0.056,0.045,0.1,0.1,0.1h2.644v7.67
		c0,0.056,0.045,0.1,0.1,0.1h1.008c0.055,0,0.1-0.044,0.1-0.1v-7.67h2.643c0.055,0,0.1-0.044,0.1-0.1v-0.895
		C7.595,36.455,7.55,36.411,7.495,36.411z"/>
	<path fill="#575757" d="M13.628,36.411H8.799c-0.055,0-0.1,0.044-0.1,0.1v8.664c0,0.056,0.045,0.1,0.1,0.1h4.829
		c0.055,0,0.1-0.044,0.1-0.1v-0.901c0-0.056-0.045-0.1-0.1-0.1H9.907v-2.989h3.491c0.055,0,0.1-0.044,0.1-0.1v-0.889
		c0-0.056-0.045-0.1-0.1-0.1H9.907v-2.592h3.721c0.055,0,0.1-0.044,0.1-0.1v-0.895C13.728,36.455,13.683,36.411,13.628,36.411z"/>
	<path fill="#575757" d="M19.259,37.387c0.641,0,1.289,0.153,1.925,0.454c0.049,0.021,0.107,0.002,0.132-0.047l0.427-0.865
		c0.012-0.023,0.013-0.051,0.005-0.076c-0.009-0.025-0.027-0.046-0.051-0.058c-0.69-0.338-1.507-0.509-2.427-0.509
		c-0.866,0-1.631,0.188-2.275,0.559c-0.643,0.37-1.143,0.906-1.486,1.594c-0.339,0.683-0.511,1.487-0.511,2.393
		c0,1.444,0.358,2.577,1.064,3.366c0.71,0.794,1.729,1.196,3.029,1.196c0.887,0,1.647-0.115,2.258-0.344
		c0.039-0.015,0.065-0.052,0.065-0.094v-0.885c0-0.031-0.015-0.061-0.04-0.08c-0.026-0.019-0.057-0.024-0.088-0.017
		c-1.971,0.558-3.41,0.395-4.237-0.568c-0.513-0.599-0.773-1.461-0.773-2.563c0-1.069,0.27-1.924,0.803-2.54
		C17.607,37.695,18.341,37.387,19.259,37.387z"/>
</g>
<g>
	<path fill="#868686" d="M26.126,38.461c-0.457,0-0.879,0.092-1.256,0.273c-0.321,0.155-0.585,0.367-0.787,0.632l-0.127-0.704
		c-0.009-0.048-0.05-0.082-0.099-0.082h-0.8c-0.055,0-0.1,0.044-0.1,0.1v6.495c0,0.056,0.045,0.1,0.1,0.1h0.982
		c0.055,0,0.1-0.044,0.1-0.1v-3.408c0-0.815,0.152-1.405,0.452-1.753c0.293-0.344,0.77-0.518,1.415-0.518
		c0.483,0,0.839,0.121,1.06,0.358c0.222,0.241,0.334,0.618,0.334,1.118v4.202c0,0.056,0.045,0.1,0.1,0.1h0.984
		c0.055,0,0.1-0.044,0.1-0.1v-4.237c0-0.856-0.21-1.49-0.625-1.883C27.548,38.66,26.931,38.461,26.126,38.461z"/>
	<path fill="#868686" d="M33.143,38.461c-0.964,0-1.73,0.309-2.278,0.919c-0.543,0.604-0.819,1.46-0.819,2.541
		c0,0.701,0.127,1.318,0.378,1.833c0.25,0.524,0.613,0.934,1.08,1.216c0.465,0.281,1.003,0.424,1.601,0.424
		c0.967,0,1.735-0.312,2.282-0.927c0.548-0.611,0.827-1.468,0.827-2.546c0-1.049-0.279-1.896-0.828-2.52
		C34.832,38.777,34.077,38.461,33.143,38.461z M31.734,40.092c0.307-0.396,0.771-0.596,1.38-0.596c0.625,0,1.082,0.198,1.398,0.604
		c0.319,0.408,0.48,1.021,0.48,1.82c0,0.809-0.162,1.427-0.48,1.838c-0.315,0.411-0.769,0.611-1.387,0.611
		c-0.615,0-1.067-0.201-1.384-0.613c-0.315-0.416-0.476-1.033-0.476-1.836C31.265,41.108,31.423,40.493,31.734,40.092z"/>
	<path fill="#868686" d="M38.821,35.854h-0.984c-0.055,0-0.1,0.044-0.1,0.1v9.222c0,0.056,0.045,0.1,0.1,0.1h0.984
		c0.055,0,0.1-0.044,0.1-0.1v-9.222C38.921,35.897,38.876,35.854,38.821,35.854z"/>
	<path fill="#868686" d="M43.544,38.461c-0.966,0-1.732,0.309-2.277,0.918c-0.545,0.605-0.822,1.461-0.822,2.542
		c0,0.697,0.127,1.313,0.378,1.833c0.253,0.525,0.616,0.935,1.081,1.216c0.464,0.281,1.002,0.424,1.599,0.424
		c0.966,0,1.735-0.312,2.284-0.927c0.548-0.61,0.827-1.467,0.827-2.546c0-1.05-0.279-1.897-0.828-2.52
		C45.233,38.777,44.479,38.461,43.544,38.461z M42.135,40.092c0.306-0.396,0.77-0.596,1.379-0.596c0.624,0,1.083,0.198,1.4,0.604
		c0.318,0.408,0.479,1.021,0.479,1.82c0,0.81-0.161,1.428-0.479,1.837c-0.317,0.412-0.771,0.612-1.388,0.612
		c-0.615,0-1.068-0.201-1.384-0.613c-0.317-0.415-0.478-1.032-0.478-1.836C41.665,41.109,41.823,40.494,42.135,40.092z"/>
	<path fill="#868686" d="M53.553,38.58h-2.231c-0.28-0.079-0.594-0.119-0.934-0.119c-0.804,0-1.436,0.203-1.879,0.604
		c-0.447,0.404-0.674,0.982-0.674,1.719c0,0.446,0.113,0.847,0.334,1.191c0.185,0.291,0.419,0.515,0.699,0.666
		c-0.209,0.144-0.368,0.293-0.473,0.442c-0.138,0.192-0.208,0.421-0.208,0.681c0,0.232,0.063,0.438,0.187,0.609
		c0.07,0.1,0.152,0.186,0.245,0.257c-0.371,0.117-0.669,0.304-0.889,0.556c-0.267,0.305-0.403,0.672-0.403,1.09
		c0,0.61,0.247,1.089,0.733,1.423c0.475,0.326,1.155,0.491,2.021,0.491c1.119,0,1.987-0.195,2.581-0.58
		c0.603-0.397,0.909-0.979,0.909-1.729c0-0.595-0.203-1.057-0.604-1.371c-0.395-0.309-0.961-0.465-1.684-0.465h-1.149
		c-0.418,0-0.613-0.062-0.703-0.115c-0.114-0.065-0.167-0.163-0.167-0.307c0-0.291,0.178-0.531,0.544-0.731
		c0.165,0.028,0.342,0.042,0.527,0.042c0.78,0,1.404-0.199,1.856-0.592c0.456-0.399,0.687-0.937,0.687-1.599
		c0-0.289-0.046-0.556-0.138-0.793c-0.066-0.168-0.136-0.309-0.21-0.427l1.036-0.122c0.05-0.006,0.088-0.049,0.088-0.1V38.68
		C53.653,38.624,53.608,38.58,53.553,38.58z M50.364,42.04c-0.43,0-0.769-0.109-1.005-0.323c-0.238-0.216-0.353-0.529-0.353-0.958
		c0-0.46,0.116-0.809,0.344-1.036c0.229-0.229,0.565-0.346,0.997-0.346c0.913,0,1.357,0.447,1.357,1.365
		C51.704,41.615,51.266,42.04,50.364,42.04z M51.874,46.882c-0.38,0.236-0.979,0.356-1.782,0.356c-0.532,0-0.943-0.087-1.222-0.259
		c-0.267-0.165-0.396-0.398-0.396-0.714c0-0.372,0.11-0.648,0.338-0.844c0.229-0.196,0.559-0.296,0.979-0.296h1.179
		c0.577,0,0.972,0.063,1.174,0.188c0.188,0.12,0.28,0.332,0.28,0.649C52.422,46.353,52.243,46.653,51.874,46.882z"/>
	<path fill="#868686" d="M57.174,35.776h-1.197c-0.038,0-0.073,0.021-0.089,0.055c-0.127,0.255-0.3,0.558-0.513,0.898
		c-0.217,0.343-0.422,0.639-0.609,0.881c-0.014,0.018-0.021,0.039-0.021,0.062v0.148c0,0.056,0.045,0.1,0.1,0.1h0.658
		c0.023,0,0.045-0.008,0.063-0.022c0.259-0.212,0.563-0.509,0.905-0.882c0.354-0.387,0.61-0.701,0.786-0.961
		c0.011-0.017,0.017-0.036,0.017-0.056v-0.123C57.274,35.82,57.229,35.776,57.174,35.776z"/>
	<path fill="#868686" d="M55.87,38.58h-0.984c-0.055,0-0.1,0.044-0.1,0.1v6.495c0,0.056,0.045,0.1,0.1,0.1h0.984
		c0.055,0,0.1-0.044,0.1-0.1V38.68C55.97,38.624,55.925,38.58,55.87,38.58z"/>
	<path fill="#868686" d="M60.397,38.474c-0.395,0-0.779,0.049-1.173,0.15c-0.383,0.099-0.744,0.24-1.073,0.419
		c-0.044,0.024-0.064,0.078-0.045,0.125l0.301,0.752c0.01,0.025,0.031,0.046,0.057,0.057c0.026,0.009,0.054,0.008,0.08-0.004
		c0.664-0.323,1.268-0.487,1.794-0.487c0.45,0,0.779,0.111,0.978,0.331c0.201,0.223,0.303,0.58,0.303,1.062v0.306l-1.005,0.033
		c-2.152,0.063-3.244,0.791-3.244,2.162c0,0.641,0.196,1.143,0.582,1.49c0.383,0.349,0.915,0.524,1.581,0.524
		c0.495,0,0.914-0.076,1.246-0.227c0.306-0.137,0.605-0.379,0.911-0.738l0.163,0.767c0.01,0.047,0.05,0.079,0.098,0.079h0.729
		c0.055,0,0.1-0.044,0.1-0.1v-4.433c0-0.785-0.199-1.367-0.592-1.728C61.797,38.655,61.195,38.474,60.397,38.474z M61.594,42.085
		v0.482c0,0.581-0.162,1.019-0.494,1.338c-0.328,0.316-0.79,0.478-1.373,0.478c-0.358,0-0.64-0.086-0.839-0.255
		c-0.191-0.166-0.289-0.414-0.289-0.737c0-0.421,0.155-0.722,0.473-0.92c0.329-0.204,0.881-0.321,1.643-0.35L61.594,42.085z"/>
	<path fill="#868686" d="M66.964,41.389c-0.569-0.213-0.937-0.367-1.125-0.473c-0.183-0.103-0.316-0.211-0.397-0.322
		c-0.076-0.105-0.115-0.235-0.115-0.385c0-0.223,0.101-0.393,0.309-0.52c0.219-0.135,0.557-0.204,1.003-0.204
		c0.512,0,1.095,0.133,1.732,0.395c0.051,0.021,0.108-0.003,0.13-0.053l0.35-0.8c0.011-0.024,0.011-0.052,0.001-0.077
		c-0.01-0.024-0.029-0.045-0.054-0.055c-0.679-0.289-1.382-0.435-2.09-0.435c-0.769,0-1.385,0.16-1.83,0.479
		c-0.457,0.324-0.688,0.773-0.688,1.334c0,0.309,0.068,0.583,0.201,0.816c0.132,0.225,0.328,0.422,0.6,0.604
		c0.265,0.174,0.693,0.37,1.309,0.6c0.619,0.237,1.041,0.446,1.255,0.619c0.195,0.161,0.291,0.349,0.291,0.573
		c0,0.3-0.12,0.518-0.366,0.664c-0.259,0.154-0.64,0.232-1.133,0.232c-0.314,0-0.654-0.046-1.01-0.135
		c-0.344-0.087-0.674-0.21-0.982-0.366c-0.03-0.017-0.067-0.015-0.098,0.004c-0.03,0.018-0.048,0.05-0.048,0.085v0.913
		c0,0.036,0.02,0.069,0.051,0.087c0.494,0.281,1.188,0.423,2.063,0.423c0.83,0,1.488-0.172,1.957-0.511
		c0.475-0.347,0.716-0.845,0.716-1.48c0-0.456-0.146-0.841-0.435-1.141C68.281,41.965,67.758,41.68,66.964,41.389z"/>
	<path fill="#868686" d="M76.671,38.461c-0.449,0-0.852,0.083-1.199,0.246c-0.306,0.146-0.58,0.368-0.817,0.663l-0.108-0.705
		c-0.007-0.049-0.049-0.085-0.099-0.085h-0.8c-0.055,0-0.1,0.044-0.1,0.1v9.41c0,0.056,0.045,0.1,0.1,0.1h0.982
		c0.055,0,0.1-0.044,0.1-0.1v-2.672c0-0.272-0.015-0.557-0.043-0.849c0.221,0.252,0.483,0.447,0.783,0.581
		c0.363,0.161,0.767,0.243,1.2,0.243c0.873,0,1.566-0.311,2.06-0.924c0.489-0.605,0.737-1.463,0.737-2.549
		c0-1.079-0.245-1.934-0.727-2.54C78.255,38.771,77.559,38.461,76.671,38.461z M78.247,41.908c0,0.774-0.154,1.388-0.459,1.823
		c-0.294,0.424-0.71,0.639-1.235,0.639c-0.636,0-1.102-0.186-1.384-0.551c-0.29-0.374-0.437-1.013-0.437-1.898v-0.218
		c0.008-0.776,0.155-1.346,0.436-1.692c0.273-0.341,0.731-0.515,1.361-0.515c0.549,0,0.961,0.199,1.26,0.609
		C78.093,40.516,78.247,41.123,78.247,41.908z"/>
	<path fill="#868686" d="M83.526,38.474c-0.391,0-0.786,0.05-1.174,0.15c-0.382,0.1-0.743,0.24-1.073,0.419
		c-0.045,0.024-0.064,0.078-0.045,0.125l0.303,0.752c0.01,0.026,0.031,0.046,0.057,0.057c0.026,0.009,0.054,0.008,0.08-0.004
		c0.663-0.323,1.267-0.487,1.794-0.487c0.45,0,0.779,0.111,0.977,0.331c0.201,0.223,0.303,0.58,0.303,1.062v0.306l-1.003,0.033
		c-2.154,0.063-3.246,0.791-3.246,2.162c0,0.64,0.196,1.141,0.583,1.49c0.382,0.348,0.914,0.524,1.58,0.524
		c0.495,0,0.915-0.076,1.248-0.227c0.303-0.136,0.608-0.384,0.911-0.739l0.161,0.768c0.009,0.046,0.05,0.079,0.098,0.079h0.729
		c0.055,0,0.1-0.044,0.1-0.1v-4.433c0-0.784-0.199-1.366-0.592-1.728C84.926,38.655,84.324,38.474,83.526,38.474z M84.725,42.085
		v0.482c0,0.571-0.167,1.021-0.495,1.338c-0.329,0.316-0.791,0.478-1.373,0.478c-0.358,0-0.641-0.086-0.839-0.255
		c-0.191-0.167-0.288-0.415-0.288-0.737c0-0.42,0.154-0.721,0.472-0.92c0.329-0.204,0.881-0.321,1.643-0.35L84.725,42.085z"/>
	<path fill="#868686" d="M91.594,38.535c-0.235-0.05-0.502-0.074-0.796-0.074c-0.424,0-0.819,0.121-1.175,0.361
		c-0.296,0.197-0.56,0.473-0.786,0.819l-0.09-0.971c-0.005-0.052-0.048-0.091-0.1-0.091h-0.811c-0.055,0-0.1,0.044-0.1,0.1v6.495
		c0,0.056,0.045,0.1,0.1,0.1h0.981c0.055,0,0.1-0.044,0.1-0.1v-3.485c0-0.606,0.18-1.12,0.535-1.527
		c0.352-0.402,0.78-0.607,1.273-0.607c0.193,0,0.419,0.028,0.692,0.087c0.027,0.007,0.056,0,0.078-0.016s0.038-0.04,0.042-0.067
		l0.134-0.911C91.68,38.595,91.646,38.546,91.594,38.535z"/>
	<path fill="#868686" d="M95.231,38.474c-0.392,0-0.786,0.051-1.171,0.15c-0.383,0.099-0.745,0.239-1.076,0.419
		c-0.044,0.024-0.064,0.078-0.045,0.125l0.303,0.752c0.01,0.026,0.031,0.046,0.057,0.057c0.026,0.009,0.054,0.008,0.08-0.004
		c0.663-0.323,1.266-0.487,1.792-0.487c0.451,0,0.781,0.111,0.98,0.33c0.2,0.223,0.301,0.58,0.301,1.062v0.306l-1.004,0.033
		c-2.152,0.063-3.244,0.791-3.244,2.162c0,0.639,0.195,1.14,0.581,1.49c0.383,0.349,0.916,0.524,1.582,0.524
		c0.494,0,0.913-0.076,1.246-0.227c0.305-0.136,0.61-0.384,0.911-0.738l0.161,0.767c0.009,0.046,0.05,0.079,0.098,0.079h0.73
		c0.055,0,0.1-0.044,0.1-0.1v-4.433c0-0.784-0.199-1.365-0.592-1.728C96.631,38.655,96.029,38.474,95.231,38.474z M96.429,42.085
		v0.482c0,0.58-0.162,1.018-0.494,1.338c-0.329,0.316-0.792,0.478-1.374,0.478c-0.36,0-0.642-0.086-0.839-0.256
		c-0.194-0.166-0.288-0.407-0.288-0.736c0-0.421,0.154-0.722,0.47-0.92c0.329-0.204,0.882-0.321,1.645-0.35L96.429,42.085z"/>
	<path fill="#868686" d="M105.65,44.267c-0.089,0.026-0.211,0.052-0.373,0.078c-0.161,0.025-0.321,0.038-0.487,0.038
		c-0.296,0-0.521-0.093-0.69-0.283c-0.168-0.188-0.253-0.467-0.253-0.832v-3.725h1.784c0.056,0,0.1-0.044,0.1-0.1V38.68
		c0-0.056-0.044-0.1-0.1-0.1h-1.784v-1.406c0-0.056-0.044-0.1-0.1-0.1h-0.569c-0.044,0-0.083,0.028-0.096,0.071l-0.402,1.342
		l-0.887,0.39c-0.037,0.017-0.06,0.052-0.06,0.092v0.475c0,0.056,0.045,0.1,0.1,0.1h0.829v3.764c0,1.385,0.668,2.087,1.985,2.087
		c0.169,0,0.362-0.018,0.573-0.053c0.208-0.031,0.376-0.076,0.501-0.135c0.035-0.017,0.057-0.052,0.057-0.091v-0.753
		c0-0.031-0.015-0.062-0.04-0.08C105.713,44.265,105.678,44.258,105.65,44.267z"/>
	<path fill="#868686" d="M109.613,38.461c-0.965,0-1.731,0.309-2.279,0.919c-0.544,0.605-0.819,1.461-0.819,2.541
		c0,0.695,0.127,1.312,0.378,1.833c0.253,0.526,0.616,0.935,1.081,1.216c0.464,0.281,1.002,0.424,1.6,0.424
		c0.965,0,1.732-0.312,2.283-0.927c0.549-0.609,0.826-1.466,0.826-2.546c0-1.051-0.278-1.898-0.828-2.52
		C111.303,38.777,110.549,38.461,109.613,38.461z M108.205,40.092c0.306-0.396,0.769-0.596,1.378-0.596
		c0.617,0,1.089,0.203,1.4,0.604c0.318,0.408,0.479,1.021,0.479,1.82c0,0.81-0.161,1.428-0.479,1.838
		c-0.312,0.405-0.778,0.611-1.388,0.611c-0.607,0-1.073-0.207-1.384-0.613c-0.317-0.417-0.479-1.035-0.479-1.836
		C107.733,41.11,107.893,40.494,108.205,40.092z"/>
	<path fill="#868686" d="M119.658,35.854h-0.984c-0.056,0-0.1,0.044-0.1,0.1v2.647l0.023,0.461l0.021,0.245
		c-0.48-0.562-1.146-0.846-1.983-0.846c-0.875,0-1.566,0.312-2.057,0.927c-0.487,0.607-0.733,1.468-0.733,2.558
		c0,1.091,0.245,1.945,0.73,2.54c0.49,0.603,1.183,0.908,2.06,0.908c0.87,0,1.549-0.302,2.02-0.897l0.104,0.693
		c0.007,0.049,0.049,0.085,0.099,0.085h0.8c0.056,0,0.1-0.044,0.1-0.1v-9.222C119.758,35.897,119.714,35.854,119.658,35.854z
		 M118.574,41.945v0.207c0,0.789-0.146,1.362-0.431,1.706c-0.279,0.339-0.745,0.512-1.384,0.512c-0.559,0-0.97-0.194-1.258-0.593
		c-0.291-0.406-0.438-1.019-0.438-1.821c0-0.792,0.149-1.412,0.441-1.841c0.29-0.424,0.697-0.63,1.244-0.63
		c0.646,0,1.1,0.181,1.386,0.551C118.426,40.411,118.574,41.053,118.574,41.945z"/>
	<path fill="#868686" d="M124.381,38.461c-0.965,0-1.731,0.309-2.279,0.919c-0.544,0.606-0.819,1.462-0.819,2.541
		c0,0.695,0.127,1.312,0.379,1.833c0.251,0.526,0.615,0.935,1.081,1.215c0.463,0.282,1,0.425,1.598,0.425
		c0.967,0,1.736-0.312,2.285-0.927c0.548-0.609,0.825-1.466,0.825-2.546c0-1.051-0.278-1.898-0.828-2.52
		C126.069,38.777,125.314,38.461,124.381,38.461z M122.973,40.092c0.313-0.4,0.765-0.596,1.379-0.596
		c0.624,0,1.082,0.198,1.399,0.604c0.318,0.408,0.479,1.021,0.479,1.82c0,0.81-0.161,1.428-0.479,1.838
		c-0.316,0.411-0.77,0.611-1.387,0.611c-0.614,0-1.068-0.201-1.387-0.613c-0.316-0.416-0.477-1.033-0.477-1.836
		C122.501,41.11,122.66,40.494,122.973,40.092z"/>
	<path fill="#868686" d="M132.931,42.261c-0.284-0.298-0.808-0.584-1.6-0.872c-0.564-0.211-0.932-0.366-1.123-0.473
		c-0.186-0.105-0.318-0.213-0.396-0.323c-0.077-0.104-0.115-0.229-0.115-0.384c0-0.223,0.101-0.393,0.309-0.52
		c0.218-0.135,0.555-0.204,1.001-0.204c0.516,0,1.1,0.133,1.734,0.395c0.051,0.019,0.107-0.004,0.13-0.053l0.35-0.8
		c0.011-0.024,0.011-0.052,0.001-0.077c-0.01-0.024-0.029-0.045-0.054-0.055c-0.68-0.289-1.382-0.435-2.089-0.435
		c-0.769,0-1.385,0.16-1.83,0.479c-0.457,0.324-0.688,0.773-0.688,1.334c0,0.311,0.067,0.585,0.201,0.816
		c0.133,0.226,0.328,0.424,0.6,0.604c0.264,0.173,0.691,0.369,1.308,0.6c0.62,0.237,1.043,0.446,1.256,0.619
		c0.197,0.162,0.293,0.35,0.293,0.573c0,0.3-0.12,0.517-0.367,0.664c-0.26,0.154-0.641,0.232-1.134,0.232
		c-0.313,0-0.653-0.046-1.01-0.135c-0.342-0.086-0.673-0.21-0.983-0.366c-0.03-0.019-0.068-0.015-0.098,0.004
		c-0.029,0.018-0.047,0.05-0.047,0.085v0.913c0,0.036,0.019,0.069,0.05,0.087c0.495,0.281,1.189,0.423,2.064,0.423
		c0.83,0,1.487-0.172,1.954-0.511c0.476-0.346,0.717-0.844,0.717-1.48C133.363,42.948,133.218,42.564,132.931,42.261z"/>
</g>
<rect x="1" y="30" fill="#364E97" width="200" height="2"/>
<g>
	<path fill="#364E97" d="M9.92,2.905c-0.03-0.077-0.104-0.127-0.186-0.127H8.003c-0.082,0-0.156,0.05-0.186,0.127L0.814,20.687
		c-0.024,0.062-0.017,0.131,0.021,0.186C0.872,20.927,0.934,20.96,1,20.96h2.085c0.083,0,0.157-0.051,0.187-0.128l2.13-5.504h6.825
		l2.156,5.504c0.03,0.077,0.104,0.127,0.186,0.127h2.132c0.003,0,0.007,0,0.01,0c0.111,0,0.2-0.09,0.2-0.2
		c0-0.048-0.017-0.091-0.044-0.126L9.92,2.905z M11.433,13.073h-5.15l1.98-5.22c0.231-0.65,0.429-1.273,0.589-1.86
		c0.216,0.724,0.422,1.338,0.625,1.864L11.433,13.073z"/>
	<path fill="#364E97" d="M22.864,9.222c0.382,0,0.836,0.057,1.349,0.17c0.522,0.117,1.001,0.263,1.422,0.433
		c0.051,0.021,0.107,0.021,0.156-0.003c0.05-0.022,0.088-0.063,0.106-0.114l0.619-1.708c0.034-0.095-0.007-0.201-0.097-0.247
		c-0.38-0.194-0.902-0.363-1.55-0.5c-0.646-0.14-1.305-0.211-1.957-0.211c-2.03,0-3.62,0.634-4.723,1.885
		c-1.099,1.243-1.657,3.019-1.657,5.279c0,2.2,0.549,3.935,1.632,5.156c1.093,1.222,2.646,1.841,4.614,1.841
		c1.373,0,2.533-0.24,3.448-0.712c0.066-0.034,0.108-0.103,0.108-0.178V18.53c0-0.067-0.033-0.129-0.089-0.166
		c-0.055-0.037-0.125-0.042-0.187-0.019c-1.134,0.465-2.254,0.701-3.329,0.701c-1.221,0-2.151-0.413-2.765-1.228
		c-0.63-0.833-0.95-2.056-0.95-3.634C19.017,10.845,20.275,9.222,22.864,9.222z"/>
	<path fill="#364E97" d="M33.317,9.222c0.382,0,0.836,0.057,1.347,0.17c0.517,0.116,0.997,0.261,1.427,0.433
		c0.051,0.021,0.107,0.021,0.156-0.003c0.049-0.022,0.088-0.064,0.106-0.115l0.616-1.708c0.034-0.095-0.007-0.2-0.097-0.246
		c-0.379-0.193-0.901-0.362-1.55-0.5c-0.65-0.14-1.308-0.211-1.956-0.211c-2.031,0-3.621,0.634-4.724,1.885
		c-1.099,1.241-1.656,3.018-1.656,5.279c0,2.206,0.549,3.94,1.632,5.155c1.089,1.222,2.642,1.842,4.615,1.842
		c1.368,0,2.528-0.24,3.446-0.712c0.067-0.034,0.109-0.103,0.109-0.178V18.53c0-0.067-0.033-0.129-0.089-0.166
		c-0.055-0.037-0.125-0.044-0.187-0.019c-1.135,0.465-2.255,0.701-3.328,0.701c-1.236,0-2.141-0.402-2.767-1.228
		c-0.629-0.833-0.948-2.056-0.948-3.634C29.47,10.845,30.728,9.222,33.317,9.222z"/>
	<path fill="#364E97" d="M43.467,7.041c-1.831,0-3.312,0.66-4.4,1.961c-1.08,1.288-1.628,3.047-1.628,5.228
		c0,2.166,0.591,3.888,1.756,5.117c1.171,1.23,2.784,1.854,4.793,1.854c0.907,0,1.692-0.069,2.335-0.205
		c0.643-0.134,1.333-0.36,2.055-0.671c0.073-0.032,0.121-0.104,0.121-0.184v-1.794c0-0.067-0.034-0.13-0.09-0.167
		s-0.126-0.042-0.189-0.017c-1.368,0.585-2.768,0.881-4.161,0.881c-1.309,0-2.293-0.375-3.009-1.147
		c-0.676-0.733-1.053-1.813-1.119-3.213h8.938c0.11,0,0.2-0.09,0.2-0.2v-1.272c0-1.835-0.506-3.337-1.503-4.463
		C46.564,7.616,45.185,7.041,43.467,7.041z M43.442,9.125c0.996,0,1.738,0.307,2.269,0.938c0.502,0.599,0.771,1.468,0.799,2.585
		h-6.516c0.131-1.078,0.482-1.934,1.045-2.548C41.64,9.444,42.426,9.125,43.442,9.125z"/>
	<path fill="#364E97" d="M55.549,13.025c-1.123-0.419-1.896-0.745-2.297-0.967c-0.38-0.216-0.654-0.438-0.815-0.659
		c-0.155-0.214-0.231-0.473-0.231-0.792c0-0.457,0.206-0.806,0.631-1.065c0.448-0.277,1.138-0.418,2.051-0.418
		c1.054,0,2.247,0.271,3.545,0.808c0.101,0.041,0.215-0.005,0.259-0.105l0.717-1.637c0.021-0.049,0.022-0.104,0.003-0.154
		c-0.02-0.05-0.059-0.089-0.108-0.11c-1.384-0.588-2.82-0.886-4.271-0.886c-1.572,0-2.83,0.329-3.738,0.977
		c-0.932,0.66-1.405,1.577-1.405,2.725c0,0.64,0.138,1.199,0.41,1.663c0.268,0.462,0.68,0.877,1.223,1.235
		c0.534,0.35,1.435,0.762,2.674,1.224c1.273,0.492,2.137,0.919,2.567,1.271c0.404,0.331,0.6,0.713,0.6,1.17
		c0,0.617-0.245,1.063-0.749,1.363c-0.533,0.315-1.313,0.474-2.32,0.474c-0.652,0-1.348-0.091-2.066-0.272
		c-0.729-0.187-1.405-0.438-2.011-0.748c-0.062-0.032-0.135-0.028-0.195,0.008c-0.059,0.036-0.096,0.101-0.096,0.17v1.865
		c0,0.072,0.039,0.139,0.102,0.174c1.012,0.572,2.43,0.862,4.217,0.862c1.699,0,3.042-0.352,3.994-1.044
		c0.971-0.707,1.463-1.723,1.463-3.02c0-0.933-0.298-1.717-0.886-2.33C58.235,14.195,57.166,13.611,55.549,13.025z"/>
	<path fill="#364E97" d="M62.432,2.352c-0.388,0-0.719,0.126-0.986,0.376c-0.265,0.254-0.4,0.643-0.4,1.157
		c0,0.506,0.134,0.895,0.397,1.152c0.263,0.26,0.596,0.392,0.988,0.392c0.376,0,0.704-0.131,0.975-0.389
		c0.276-0.261,0.416-0.649,0.416-1.155s-0.14-0.893-0.417-1.153C63.13,2.479,62.803,2.352,62.432,2.352z"/>
	<path fill="#364E97" d="M63.427,7.282h-2.013c-0.11,0-0.2,0.09-0.2,0.2V20.76c0,0.11,0.09,0.2,0.2,0.2h2.013
		c0.11,0,0.2-0.09,0.2-0.2V7.482C63.627,7.372,63.537,7.282,63.427,7.282z"/>
	<path fill="#364E97" d="M72.509,7.063c-1.712,0-3.064,0.566-4.027,1.685c0.041-0.683,0.062-1.44,0.062-2.259V1.91
		c0-0.11-0.09-0.2-0.2-0.2h-2.013c-0.11,0-0.2,0.09-0.2,0.2v18.85c0,0.11,0.09,0.2,0.2,0.2h1.442c0.092,0,0.172-0.063,0.194-0.152
		l0.359-1.45c0.479,0.597,1.061,1.049,1.733,1.348c0.741,0.329,1.564,0.496,2.449,0.496c1.783,0,3.198-0.634,4.208-1.885
		c1-1.24,1.506-2.992,1.506-5.208c0-2.216-0.503-3.96-1.495-5.182C75.73,7.69,74.311,7.063,72.509,7.063z M72.219,9.147
		c1.21,0,2.077,0.389,2.648,1.189c0.578,0.811,0.871,2.071,0.871,3.747c0,1.638-0.294,2.907-0.874,3.772
		c-0.571,0.849-1.42,1.261-2.596,1.261c-1.304,0-2.258-0.379-2.835-1.127c-0.59-0.762-0.89-2.067-0.89-3.88
		c0-1.812,0.291-3.11,0.865-3.857C69.973,9.519,70.918,9.147,72.219,9.147z"/>
	<path fill="#364E97" d="M81.193,2.352c-0.393,0-0.724,0.126-0.984,0.375c-0.269,0.253-0.405,0.643-0.405,1.158
		c0,0.507,0.136,0.896,0.4,1.15c0.259,0.261,0.591,0.394,0.989,0.394c0.377,0,0.705-0.131,0.972-0.388
		c0.275-0.258,0.415-0.647,0.415-1.156c0-0.508-0.14-0.896-0.416-1.152C81.893,2.48,81.566,2.352,81.193,2.352z"/>
	<path fill="#364E97" d="M82.187,7.282h-2.012c-0.11,0-0.2,0.09-0.2,0.2V20.76c0,0.11,0.09,0.2,0.2,0.2h2.012
		c0.11,0,0.2-0.09,0.2-0.2V7.482C82.387,7.372,82.297,7.282,82.187,7.282z"/>
	<path fill="#364E97" d="M87.104,1.71h-2.012c-0.11,0-0.2,0.09-0.2,0.2v18.85c0,0.11,0.09,0.2,0.2,0.2h2.012
		c0.11,0,0.2-0.09,0.2-0.2V1.91C87.304,1.8,87.214,1.71,87.104,1.71z"/>
	<path fill="#364E97" d="M92.02,7.282h-2.011c-0.11,0-0.2,0.09-0.2,0.2V20.76c0,0.11,0.09,0.2,0.2,0.2h2.011
		c0.11,0,0.2-0.09,0.2-0.2V7.482C92.22,7.372,92.13,7.282,92.02,7.282z"/>
	<path fill="#364E97" d="M91.025,2.352c-0.389,0-0.72,0.126-0.986,0.376c-0.266,0.254-0.401,0.644-0.401,1.157
		c0,0.506,0.134,0.894,0.398,1.152c0.262,0.26,0.595,0.392,0.988,0.392c0.377,0,0.706-0.131,0.975-0.389
		c0.274-0.26,0.413-0.648,0.413-1.155c0-0.506-0.139-0.893-0.415-1.153C91.725,2.479,91.398,2.352,91.025,2.352z"/>
	<path fill="#364E97" d="M105.863,1.71h-2.009c-0.11,0-0.2,0.09-0.2,0.2v5.415l0.05,0.939l0.045,0.516
		c-0.982-1.154-2.348-1.738-4.063-1.738c-1.785,0-3.199,0.637-4.202,1.893c-0.993,1.24-1.497,2.998-1.497,5.226
		c0,2.225,0.502,3.97,1.492,5.188c1,1.231,2.416,1.855,4.207,1.855c1.782,0,3.171-0.618,4.132-1.836l0.212,1.423
		c0.015,0.098,0.1,0.171,0.198,0.171h1.636c0.11,0,0.2-0.09,0.2-0.2V1.91C106.063,1.8,105.974,1.71,105.863,1.71z M99.939,19.117
		c-1.145,0-1.987-0.396-2.575-1.212c-0.594-0.825-0.895-2.077-0.895-3.721c0-1.625,0.305-2.893,0.906-3.771
		c0.589-0.866,1.421-1.287,2.542-1.287c1.299,0,2.255,0.379,2.839,1.128c0.596,0.764,0.897,2.078,0.897,3.906v0.422
		c0,1.607-0.297,2.781-0.882,3.489C102.199,18.765,101.246,19.117,99.939,19.117z"/>
	<path fill="#364E97" d="M113.761,7.063c-0.799,0-1.604,0.104-2.395,0.31c-0.791,0.206-1.53,0.493-2.195,0.854
		c-0.09,0.048-0.129,0.156-0.091,0.25l0.618,1.539c0.021,0.051,0.062,0.092,0.113,0.112c0.052,0.019,0.108,0.018,0.16-0.007
		c1.359-0.661,2.594-0.996,3.668-0.996c0.922,0,1.596,0.228,2.003,0.678c0.412,0.455,0.62,1.186,0.62,2.173v0.63l-2.061,0.067
		c-4.396,0.132-6.625,1.618-6.625,4.416c0,1.308,0.398,2.332,1.185,3.042c0.781,0.71,1.867,1.071,3.229,1.071
		c1.008,0,1.864-0.155,2.546-0.46c0.621-0.276,1.249-0.787,1.87-1.519l0.333,1.578c0.02,0.093,0.101,0.159,0.195,0.159h1.489
		c0.11,0,0.2-0.09,0.2-0.2v-9.061c0-1.6-0.407-2.787-1.211-3.529C116.618,7.436,115.39,7.063,113.761,7.063z M116.213,14.439v0.991
		c0,1.174-0.34,2.095-1.011,2.737c-0.674,0.648-1.619,0.976-2.811,0.976c-0.738,0-1.316-0.175-1.719-0.522
		c-0.396-0.34-0.589-0.833-0.589-1.506c0-0.863,0.315-1.479,0.966-1.885c0.671-0.419,1.801-0.659,3.36-0.714L116.213,14.439z"/>
	<path fill="#364E97" d="M132.149,1.71h-2.012c-0.11,0-0.2,0.09-0.2,0.2v5.415l0.05,0.939l0.046,0.517
		c-0.984-1.155-2.35-1.74-4.064-1.74c-1.785,0-3.199,0.637-4.202,1.893c-0.993,1.24-1.497,2.998-1.497,5.226
		c0,2.226,0.502,3.971,1.492,5.188c0.998,1.231,2.414,1.855,4.207,1.855c1.781,0,3.169-0.618,4.132-1.836l0.214,1.424
		c0.016,0.098,0.1,0.17,0.198,0.17h1.637c0.11,0,0.2-0.09,0.2-0.2V1.91C132.35,1.8,132.26,1.71,132.149,1.71z M126.223,19.117
		c-1.146,0-1.987-0.396-2.573-1.213c-0.596-0.826-0.897-2.078-0.897-3.721c0-1.625,0.304-2.894,0.904-3.771
		c0.595-0.867,1.426-1.288,2.542-1.288c1.303,0,2.259,0.379,2.842,1.127c0.596,0.766,0.897,2.08,0.897,3.907v0.422
		c0,1.606-0.297,2.78-0.882,3.489C128.482,18.765,127.529,19.117,126.223,19.117z"/>
	<path fill="#364E97" d="M145.868,2.848h-5.427c-0.11,0-0.2,0.09-0.2,0.2V20.76c0,0.11,0.09,0.2,0.2,0.2h4.907
		c3.018,0,5.369-0.799,6.99-2.375c1.618-1.58,2.439-3.885,2.439-6.851c0-2.779-0.79-4.979-2.347-6.537
		C150.871,3.638,148.663,2.848,145.868,2.848z M142.699,5.03h2.794c2.22,0,3.91,0.57,5.023,1.695
		c1.115,1.129,1.681,2.839,1.681,5.081c0,2.3-0.603,4.056-1.79,5.218c-1.192,1.164-3.009,1.753-5.399,1.753h-2.309V5.03z"/>
	<path fill="#364E97" d="M158.876,7.282h-2.01c-0.11,0-0.2,0.09-0.2,0.2V20.76c0,0.11,0.09,0.2,0.2,0.2h2.01
		c0.11,0,0.2-0.09,0.2-0.2V7.482C159.076,7.372,158.986,7.282,158.876,7.282z"/>
	<path fill="#364E97" d="M157.884,2.352c-0.388,0-0.719,0.126-0.985,0.375c-0.267,0.253-0.401,0.643-0.401,1.158
		c0,0.507,0.135,0.895,0.398,1.152c0.264,0.26,0.596,0.392,0.988,0.392c0.377,0,0.704-0.131,0.971-0.389
		c0.276-0.259,0.416-0.648,0.416-1.155s-0.141-0.895-0.417-1.152C158.582,2.48,158.256,2.352,157.884,2.352z"/>
	<path fill="#364E97" d="M172.647,7.282h-4.563c-0.565-0.16-1.205-0.241-1.903-0.241c-1.645,0-2.937,0.415-3.843,1.232
		c-0.911,0.827-1.373,2.008-1.373,3.509c0,0.907,0.229,1.726,0.68,2.435c0.382,0.598,0.863,1.054,1.436,1.361
		c-0.428,0.293-0.755,0.599-0.975,0.911c-0.282,0.395-0.426,0.862-0.426,1.388c0,0.469,0.129,0.887,0.383,1.242
		c0.148,0.208,0.318,0.384,0.509,0.528c-0.759,0.239-1.37,0.622-1.822,1.139c-0.548,0.623-0.825,1.373-0.825,2.228
		c0,1.244,0.504,2.221,1.497,2.901c0.969,0.667,2.358,1.005,4.13,1.005c2.289,0,4.062-0.4,5.27-1.19
		c1.235-0.808,1.861-1.995,1.861-3.528c0-1.214-0.416-2.156-1.235-2.799c-0.804-0.632-1.96-0.952-3.437-0.952h-2.351
		c-0.688,0-1.171-0.079-1.438-0.233c-0.237-0.139-0.348-0.339-0.348-0.632c0-0.596,0.365-1.087,1.116-1.5
		c0.338,0.059,0.701,0.089,1.08,0.089c1.597,0,2.872-0.409,3.792-1.214c0.93-0.813,1.401-1.911,1.401-3.263
		c0-0.596-0.094-1.14-0.279-1.618c-0.135-0.341-0.278-0.63-0.436-0.876l2.123-0.251c0.101-0.012,0.177-0.097,0.177-0.199V7.482
		C172.848,7.372,172.758,7.282,172.647,7.282z M166.132,14.356c-0.88,0-1.573-0.223-2.059-0.662
		c-0.485-0.44-0.722-1.082-0.722-1.961c0-0.938,0.237-1.653,0.705-2.124c0.465-0.467,1.151-0.704,2.038-0.704
		c1.871,0,2.78,0.914,2.78,2.793C168.875,13.487,167.978,14.356,166.132,14.356z M169.219,24.255
		c-0.775,0.481-2.001,0.726-3.643,0.726c-1.092,0-1.934-0.177-2.503-0.527c-0.546-0.335-0.812-0.815-0.812-1.465
		c0-0.761,0.227-1.326,0.691-1.726c0.47-0.402,1.144-0.606,2.003-0.606h2.413c1.181,0,1.987,0.13,2.397,0.387
		c0.387,0.242,0.574,0.676,0.574,1.329C170.341,23.167,169.974,23.784,169.219,24.255z"/>
	<path fill="#364E97" d="M175.034,2.352c-0.392,0-0.724,0.126-0.987,0.376c-0.266,0.254-0.4,0.644-0.4,1.157
		c0,0.506,0.135,0.894,0.397,1.151c0.261,0.26,0.594,0.393,0.99,0.393c0.375,0,0.703-0.131,0.975-0.389
		c0.275-0.261,0.415-0.65,0.415-1.155c0-0.504-0.14-0.892-0.418-1.153C175.731,2.479,175.404,2.352,175.034,2.352z"/>
	<path fill="#364E97" d="M176.025,7.282h-2.01c-0.11,0-0.2,0.09-0.2,0.2V20.76c0,0.11,0.09,0.2,0.2,0.2h2.01
		c0.11,0,0.2-0.09,0.2-0.2V7.482C176.226,7.372,176.136,7.282,176.025,7.282z"/>
	<path fill="#364E97" d="M184.981,18.909c-0.194,0.055-0.457,0.109-0.763,0.157c-0.318,0.051-0.654,0.076-0.997,0.076
		c-0.609,0-1.072-0.188-1.414-0.575c-0.345-0.39-0.519-0.966-0.519-1.71V9.246h3.651c0.11,0,0.2-0.09,0.2-0.2V7.482
		c0-0.11-0.09-0.2-0.2-0.2h-3.651V4.405c0-0.11-0.09-0.2-0.2-0.2h-1.161c-0.088,0-0.166,0.058-0.191,0.143l-0.824,2.748
		l-1.817,0.796c-0.073,0.032-0.12,0.104-0.12,0.183v0.972c0,0.11,0.09,0.2,0.2,0.2h1.702v7.698c0,2.825,1.363,4.258,4.052,4.258
		c0.347,0,0.742-0.035,1.178-0.104c0.45-0.074,0.783-0.166,1.018-0.28c0.068-0.034,0.112-0.104,0.112-0.18v-1.536
		c0-0.062-0.029-0.122-0.08-0.16S185.04,18.892,184.981,18.909z"/>
	<path fill="#364E97" d="M191.322,7.063c-0.797,0-1.603,0.104-2.395,0.31c-0.794,0.207-1.532,0.494-2.195,0.854
		c-0.089,0.048-0.128,0.156-0.09,0.25l0.616,1.539c0.021,0.052,0.062,0.092,0.113,0.112c0.052,0.019,0.108,0.018,0.16-0.007
		c1.36-0.661,2.595-0.996,3.671-0.996c0.923,0,1.596,0.228,2,0.678c0.411,0.457,0.62,1.188,0.62,2.174v0.631l-2.06,0.067
		c-4.396,0.132-6.626,1.618-6.626,4.416c0,1.306,0.399,2.329,1.186,3.042c0.783,0.71,1.87,1.071,3.231,1.071
		c1.008,0,1.864-0.155,2.544-0.46c0.629-0.279,1.242-0.777,1.868-1.518l0.335,1.577c0.02,0.092,0.101,0.159,0.195,0.159h1.487
		c0.11,0,0.2-0.09,0.2-0.2v-9.061c0-1.602-0.406-2.789-1.206-3.529C194.18,7.436,192.949,7.063,191.322,7.063z M193.776,14.439
		v0.991c0,1.171-0.34,2.092-1.011,2.736c-0.676,0.648-1.622,0.977-2.813,0.977c-0.737,0-1.314-0.175-1.716-0.522
		c-0.393-0.337-0.592-0.844-0.592-1.506c0-0.864,0.316-1.48,0.968-1.885c0.67-0.418,1.801-0.659,3.361-0.714L193.776,14.439z"/>
	<path fill="#364E97" d="M200.781,1.71h-2.013c-0.11,0-0.2,0.09-0.2,0.2v18.85c0,0.11,0.09,0.2,0.2,0.2h2.013
		c0.11,0,0.2-0.09,0.2-0.2V1.91C200.981,1.8,200.892,1.71,200.781,1.71z"/>
</g>
</svg>
